<svg width="124" height="20" viewBox="0 0 124 20" fill="none" xmlns="http://www.w3.org/2000/svg">
<g clip-path="url(#clip0_2010_111025)">
<path d="M8.77938 10.8615L7.51345 16.3047C7.09148 18.1116 7.60974 18.678 9.4789 18.678L9.28915 19.5276H0L0.198244 18.678C2.0674 18.678 2.84622 18.1116 3.25404 16.3047L6.1484 3.86917C6.56188 2.05665 6.05211 1.49591 4.18012 1.49591L4.38403 0.640625H13.7072C19.5186 0.640625 21.1583 3.0677 20.5692 5.62222C19.4647 10.3631 14.7097 10.8587 11.0054 10.8587H8.77938M9.00595 9.85615H10.5409C13.625 9.85615 15.3413 8.72332 16.0408 5.67036C16.6978 2.86379 15.446 1.64884 13.0076 1.64317C10.9119 1.64884 10.7307 2.42199 10.3172 4.20619L9.00595 9.85615Z" fill="white"/>
<path d="M19.9337 13.2619C19.3815 15.6606 20.4576 18.2944 23.1821 18.2944C24.6547 18.2944 26.2039 17.4448 27.4273 16.414L27.9258 16.9521C25.8782 18.8325 23.9071 19.8407 21.3696 19.8407C17.7955 19.8407 15.241 17.4335 16.1133 13.6697C16.5013 11.9931 17.4783 10.3194 18.8774 9.00529C20.4378 7.52979 22.273 6.7793 24.1875 6.7793C27.7983 6.7793 29.5967 9.61985 28.6734 13.2619H19.9309M25.6176 12.1517C26.2011 9.61985 26.1133 7.8923 24.06 7.89796C21.8284 7.8923 20.5539 10.4751 20.1404 12.1517H25.6176Z" fill="white"/>
<path d="M40.5162 4.90161C40.8645 3.4346 40.6861 2.49719 39.103 2.39807L39.2814 1.59093L45.3448 0.177734L41.6008 16.3035C41.2723 17.6968 41.4083 18.572 42.9602 18.7334L42.7676 19.5264C40.3321 19.6311 38.664 19.685 37.0129 19.9965L37.3981 18.3171C36.2086 19.3168 34.8181 19.8379 33.4162 19.8379C29.7345 19.8379 28.2222 17.0851 29.0407 13.5535C30.1678 8.6909 34.0392 6.77926 36.4493 6.77926C37.7691 6.77926 38.8906 7.39948 39.7402 8.19812L40.5133 4.90161M39.4286 9.56884C38.916 8.97411 37.8484 8.33123 36.9704 8.33123C36.033 8.3284 33.9203 9.28563 33.0282 13.1287C32.6175 14.9328 32.5864 18.2916 34.9483 18.2916C36.0812 18.2916 36.8883 17.6487 37.7379 16.8416L39.4286 9.56884Z" fill="white"/>
<path d="M43.4453 19.5274L43.6294 18.7345C44.5696 18.7345 45.3654 18.6268 45.8356 16.6274L47.0505 11.3824C47.3649 10.0174 47.2431 9.0828 45.7846 8.89872L45.9715 8.10008L51.9132 6.52545L49.4634 17.0607C49.1349 18.573 49.9562 18.7316 50.735 18.7373L50.551 19.5303L43.4453 19.5246M51.3354 0.181641C52.5504 0.181641 53.2811 1.1587 53.0035 2.35383C52.7316 3.56029 51.545 4.51469 50.3187 4.51469C49.0924 4.51469 48.3674 3.56029 48.6506 2.35383C48.9225 1.16153 50.1375 0.181641 51.3383 0.181641" fill="white"/>
<path d="M62.9126 16.5425C62.7823 17.1825 62.5444 17.984 63.4507 17.984C63.6602 17.984 63.9095 17.9047 64.1417 17.8311L64.2125 18.3012C63.3912 19.1735 62.0658 19.8418 60.9726 19.8418C59.8851 19.8447 59.0893 19.2471 58.7693 18.3012C57.2003 19.3207 55.7418 19.8447 54.0227 19.8418C51.9044 19.8418 50.443 18.8619 50.9783 16.5906C51.8024 12.9798 57.4807 11.9942 60.3241 11.5581L60.4855 10.8585C60.7744 9.62376 61.3351 7.63282 59.5339 7.63282C58.2567 7.63282 57.7214 8.59289 57.1295 9.56712C56.6226 10.4422 55.8069 11.408 54.7959 11.3995C53.9633 11.3995 53.3034 10.7764 53.5045 9.90414C53.8047 8.64104 55.7616 6.78037 60.1655 6.78321C61.3011 6.78321 62.9975 6.98995 63.7565 7.73761C64.6968 8.69201 64.4589 9.85033 64.1785 11.0426L62.9154 16.5396M60.0635 12.6965C57.9338 12.9288 55.5124 13.7784 54.9375 16.231C54.6741 17.3978 55.0564 18.3012 56.2742 18.3012C57.2371 18.2927 58.336 17.5705 59.095 16.8767L60.0635 12.6937" fill="white"/>
<path d="M80.2984 5.57545L79.2392 5.91246C78.4491 3.84789 76.4723 1.18859 73.8555 1.18859C72.0599 1.18859 70.3947 2.14299 69.9642 4.00082C69.4629 6.1107 71.5757 6.67712 73.1078 7.20105L74.5238 7.68816C77.4748 8.72469 80.2474 10.1889 79.3553 14.0178C78.5397 17.5522 75.0138 20.002 71.6153 20.002C70.508 20.002 69.4629 19.7669 68.4802 19.4299C68.0214 19.2741 67.741 19.1467 67.2228 19.1467C66.781 19.1467 66.5431 19.1976 64.7277 19.9708L64.4219 14.0093L65.515 13.6751C66.4751 16.1305 68.3245 18.9966 71.4652 18.9937C73.3315 18.9937 75.5519 17.6768 76.0163 15.6887C76.5148 13.5788 74.5805 12.9331 73.0427 12.4205C69.8538 11.3047 65.8209 10.0104 66.8405 5.62642C67.6051 2.35539 70.7232 0.183205 73.9149 0.188869C74.9741 0.188869 75.736 0.370121 76.6422 0.704304C76.9764 0.828914 77.2738 0.956357 77.6703 0.962021C78.316 0.956357 79.327 0.446586 79.8934 0.00195312L80.3041 5.57828" fill="white"/>
<path d="M87.7955 17.7517C86.1671 18.8647 84.4338 19.8417 82.5873 19.8417C80.098 19.8417 79.4296 18.1708 79.928 16.0269L81.0042 11.3767C81.3271 10.0117 81.2025 9.07991 79.7383 8.90715L79.928 8.10002L85.864 6.52539L83.6749 15.976C83.4483 16.9785 84.0204 17.6497 85.1107 17.6497C86.1189 17.6497 87.2716 16.9021 88.141 16.2818L89.2767 11.3824C89.5995 10.0117 89.4692 9.07708 88.0107 8.90715L88.1976 8.10002L94.1308 6.52539L91.8737 16.3045C91.5508 17.6752 91.6669 18.6041 93.1764 18.7344L92.9895 19.5359H87.3877L87.7983 17.7488" fill="white"/>
<path d="M99.445 17.0665C99.1844 18.4797 99.7763 18.7374 100.892 18.7374L100.708 19.5389H93.3164L93.5005 18.7374C94.6701 18.7374 95.3583 18.5817 95.8228 16.6275L97.0066 11.4704C97.3209 10.094 97.2077 9.16506 95.7406 8.98665L95.9219 8.18517L101.866 6.60772L101.173 9.57571C102.351 8.44006 104.299 6.53125 105.877 6.53125C106.916 6.53125 107.4 7.57062 107.174 8.54768C106.958 9.45394 106.072 10.2554 105.14 10.2554C104.721 10.2554 104.339 10.077 103.976 9.9099C103.645 9.75697 103.333 9.60687 103.07 9.60687C102.47 9.60687 101.201 10.8133 100.776 11.3061L99.445 17.0665Z" fill="white"/>
<path d="M108.798 13.2714C108.237 15.6674 109.322 18.3012 112.038 18.3012C113.516 18.3012 115.065 17.4431 116.286 16.4179L116.776 16.9616C114.737 18.8421 112.768 19.8447 110.231 19.8447C106.648 19.8447 104.097 17.4402 104.969 13.6821C105.36 12.0027 106.345 10.3204 107.733 9.0092C109.302 7.53653 111.131 6.78887 113.049 6.7832C116.651 6.78887 118.458 9.62376 117.538 13.2686H108.801M114.468 12.1585C115.065 9.62659 114.972 7.8962 112.913 7.8962C110.69 7.8962 109.418 10.479 109.013 12.1585H114.468Z" fill="white"/>
<path d="M14.1999 1.76407C13.8431 1.68478 13.4523 1.63946 13.0105 1.63946C10.9148 1.64513 10.7363 2.41828 10.32 4.20248L9.00878 9.85243H10.5438C13.6279 9.85243 15.3441 8.71961 16.0436 5.66665C16.0436 5.64966 16.0521 5.6355 16.0578 5.61851C16.5619 3.33303 15.8199 2.12374 14.2028 1.76124M0 19.5267L0.195412 18.6771C2.0674 18.6771 2.84339 18.1107 3.2512 16.3039L6.15123 3.87113C6.15123 3.84847 6.15123 3.83431 6.16256 3.81732C6.46842 2.44943 6.22203 1.80655 5.23648 1.58849C4.95044 1.52618 4.6021 1.49786 4.18295 1.49786L4.38686 0.642578H13.71C14.9448 0.642578 15.9898 0.750196 16.8677 0.945608C20.0991 1.67628 21.0309 3.59358 20.5721 5.59019V5.627C19.4676 10.3679 14.7125 10.8635 11.0054 10.8635H8.77938L7.51345 16.3067C7.50779 16.3322 7.50779 16.3548 7.50496 16.369C7.19343 17.7227 7.43982 18.3684 8.42537 18.5837C8.71425 18.646 9.06259 18.68 9.4789 18.68L9.28915 19.5296H0" fill="white"/>
<path d="M24.6637 7.95177C24.4853 7.91212 24.2842 7.8923 24.0605 7.89796C21.8288 7.8923 20.5544 10.4751 20.1409 12.1517H25.6181C25.621 12.1007 25.6351 12.0554 25.6521 12.0044C26.1364 9.82942 26.0911 8.27462 24.6666 7.95177M19.7898 19.668C17.088 19.0676 15.3887 16.8784 16.0996 13.715C16.0996 13.7065 16.1109 13.6895 16.1137 13.6697C16.5017 11.9931 17.4788 10.3194 18.8778 9.00529C20.4383 7.52979 22.2735 6.7793 24.1879 6.7793C24.6524 6.7793 25.0885 6.83594 25.4935 6.92373C28.15 7.5128 29.4216 9.97386 28.7221 13.0381C28.7107 13.1174 28.6909 13.1826 28.6768 13.2619H19.9342C19.9342 13.2619 19.9342 13.2874 19.9285 13.2987C19.4527 15.4227 20.257 17.728 22.3641 18.2038C22.619 18.2605 22.8909 18.2916 23.1826 18.2916C24.6552 18.2916 26.2044 17.442 27.4278 16.414L27.9263 16.9521C25.8758 18.8325 23.9047 19.8379 21.37 19.8379C20.8093 19.8379 20.2797 19.7813 19.7898 19.668Z" fill="white"/>
<path d="M33.0204 13.1751C32.6352 14.8744 32.6097 17.8169 34.4789 18.2445C34.6205 18.2757 34.7706 18.2955 34.9462 18.2955C36.0818 18.2955 36.8833 17.6498 37.7357 16.8455L39.4265 9.57275C39.0073 9.0828 38.2087 8.56453 37.4554 8.38612C37.2911 8.35213 37.1268 8.33514 36.9682 8.33514C36.0337 8.32947 33.9181 9.28671 33.026 13.1326C33.026 13.1468 33.026 13.1638 33.0175 13.1751M32.0716 19.6974C29.401 19.097 28.356 16.6472 29.0243 13.6226C29.0328 13.5943 29.0413 13.566 29.0413 13.5546C30.1685 8.69198 34.0399 6.78034 36.45 6.78034C36.7672 6.78034 37.0759 6.81715 37.3732 6.88796C38.2993 7.09186 39.1036 7.59314 39.7437 8.20203L40.5168 4.90551C40.5168 4.87719 40.5281 4.86303 40.5281 4.84604C40.8057 3.57162 40.6924 2.71633 39.5766 2.46711C39.435 2.4303 39.2792 2.4133 39.1036 2.40197L39.2849 1.59484L45.3483 0.181641L41.6072 16.3074C41.6015 16.33 41.5987 16.3527 41.5902 16.3697C41.3126 17.5903 41.4174 18.4088 42.5531 18.6665C42.6862 18.7005 42.8136 18.7146 42.9665 18.7373L42.774 19.5303C40.3384 19.6351 38.6703 19.686 37.0192 20.0004L37.4044 18.321C36.2149 19.3207 34.8244 19.8418 33.4225 19.839C32.9326 19.839 32.4879 19.7936 32.0744 19.6974" fill="white"/>
<path d="M43.4442 19.5274L43.6283 18.7344C44.5686 18.7344 45.3644 18.6268 45.8345 16.6273L47.0495 11.3824C47.0551 11.3569 47.0579 11.3342 47.0636 11.3144C47.344 10.0825 47.242 9.21018 46.0781 8.9553C45.9959 8.92981 45.8911 8.91282 45.7835 8.89866L45.9704 8.10002L51.9121 6.52539L49.4624 17.0635C49.2273 18.1821 49.6096 18.5588 50.1392 18.6834C50.3176 18.7259 50.5357 18.7401 50.7311 18.7401L50.547 19.533L43.4414 19.5274" fill="white"/>
<path d="M49.8802 4.46938C48.9457 4.25981 48.4076 3.41302 48.6398 2.36516C48.6398 2.36516 48.6417 2.36138 48.6455 2.35383C48.9202 1.16153 50.1323 0.181641 51.3331 0.181641C51.4889 0.181641 51.639 0.198633 51.7806 0.23545C52.7151 0.445022 53.2419 1.3088 53.0097 2.32834C53.0097 2.33401 53.0012 2.33967 53.0012 2.35383C52.7265 3.56029 51.5398 4.51469 50.3135 4.51469C50.1635 4.51469 50.0105 4.50053 49.8802 4.47221" fill="white"/>
<path d="M54.9353 16.2612C54.7115 17.2524 54.9806 18.0511 55.8472 18.255C55.9803 18.272 56.1247 18.3031 56.2833 18.3031C57.2462 18.2946 58.3451 17.5725 59.1012 16.8814L60.0698 12.6985C57.9401 12.9307 55.5187 13.7803 54.9438 16.2357C54.9438 16.2442 54.9438 16.2499 54.9353 16.2669M52.8452 19.722C51.4122 19.402 50.5711 18.4136 50.9704 16.6379C50.9704 16.6237 50.9704 16.6039 50.9817 16.5926C51.8087 12.9817 57.4841 11.9961 60.3275 11.56L60.4889 10.8605C60.5343 10.6906 60.5796 10.5037 60.6249 10.2997C60.8684 9.2179 61.0497 7.92648 59.948 7.67726C59.8262 7.64611 59.6846 7.63478 59.5402 7.63478C58.2601 7.63478 57.7249 8.59485 57.133 9.56907C56.626 10.4442 55.8104 11.4099 54.8022 11.4014C54.6832 11.4042 54.5643 11.3844 54.4538 11.3646C53.7996 11.2258 53.3465 10.6622 53.5079 9.92308C53.5079 9.92308 53.5079 9.91742 53.5079 9.90609C53.8081 8.64299 55.7651 6.78233 60.1689 6.78516C60.7495 6.78516 61.4632 6.83897 62.1315 6.98907C62.7886 7.1335 63.3861 7.37706 63.7571 7.73956C64.6351 8.63166 64.4906 9.69652 64.2414 10.7925C64.2188 10.8747 64.2046 10.9624 64.1791 11.0446L62.916 16.5416C62.7942 17.1193 62.5988 17.8132 63.2134 17.9548C63.2785 17.9746 63.3607 17.9831 63.4569 17.9831C63.6665 17.9831 63.9157 17.9038 64.1451 17.8302L64.2159 18.3003C63.3946 19.1726 62.0692 19.841 60.9761 19.841C60.7665 19.841 60.5767 19.824 60.387 19.7815C59.6025 19.5946 59.0361 19.065 58.7727 18.3003C57.2038 19.3199 55.7481 19.8438 54.0262 19.841C53.607 19.841 53.2077 19.8013 52.8452 19.7192" fill="white"/>
<path d="M64.7277 19.9719L64.4219 14.0104L65.515 13.6762C66.359 15.8427 67.8911 18.318 70.3975 18.8844C70.7374 18.9552 71.0885 18.9976 71.4624 18.9976C73.3287 18.9976 75.549 17.6836 76.0107 15.6926V15.6756C76.4836 13.5827 74.5663 12.937 73.037 12.4244C69.8566 11.3114 65.8492 10.0257 66.8206 5.68414C66.8291 5.66431 66.8291 5.64732 66.8348 5.63033C67.5994 2.3593 70.7175 0.187111 73.9093 0.192775C74.4927 0.187111 74.9996 0.243752 75.4811 0.348539C75.8662 0.436332 76.2287 0.555279 76.6337 0.705378C76.849 0.784676 77.0415 0.861141 77.2596 0.912118C77.3842 0.943271 77.523 0.963095 77.6618 0.963095C78.3103 0.957431 79.3185 0.447661 79.8849 0.00585938L80.2956 5.57935L79.2364 5.9192C78.534 4.08119 76.8943 1.78156 74.6966 1.28595C74.4304 1.22081 74.1358 1.19249 73.8498 1.19249C72.0543 1.19249 70.389 2.1469 69.9586 4.00473C69.9586 4.00473 69.9586 4.01322 69.9557 4.02172C69.4799 6.12594 71.57 6.68385 73.1021 7.20495L74.5182 7.69207C77.4493 8.72577 80.2078 10.1814 79.3695 13.9594C79.3582 13.9821 79.3582 13.9991 79.3497 14.0189C78.534 17.5505 75.0081 20.003 71.6125 20.003C70.9498 20.003 70.3097 19.9237 69.7008 19.7765C69.2845 19.683 68.8739 19.5669 68.4774 19.4281C68.2027 19.3403 68.0016 19.261 67.7637 19.2044C67.6079 19.1676 67.4352 19.1449 67.22 19.1449C66.7781 19.1449 66.5403 19.1959 64.7221 19.969" fill="white"/>
<path d="M81.6528 19.7541C79.9535 19.369 79.5089 17.8963 79.9195 16.0781C79.9224 16.0583 79.928 16.0356 79.928 16.03L81.0042 11.3797C81.0127 11.3627 81.0127 11.3373 81.0184 11.3174C81.2903 10.0798 81.1996 9.21321 80.0328 8.96116C79.945 8.93567 79.8487 8.92151 79.7383 8.91301L79.928 8.10588L85.8612 6.53125L83.672 15.9818V15.9988C83.4851 16.8286 83.8533 17.4375 84.6123 17.6074C84.7595 17.6358 84.921 17.6556 85.105 17.6556C86.1132 17.6556 87.2659 16.9079 88.1353 16.2877L89.271 11.3882C89.2767 11.3684 89.2852 11.3373 89.2852 11.3203C89.5627 10.0827 89.4607 9.21321 88.2996 8.96116C88.209 8.94416 88.1155 8.92434 88.0051 8.91301L88.192 8.10588L94.1251 6.53125L91.868 16.3103C91.8623 16.3302 91.851 16.3585 91.851 16.3698C91.5763 17.5734 91.6613 18.4316 92.7714 18.678C92.8904 18.7091 93.0178 18.7233 93.1707 18.7374L92.981 19.5389H87.382L87.7898 17.7519C86.1586 18.8649 84.4282 19.8419 82.5817 19.8419C82.239 19.8419 81.919 19.8079 81.6471 19.7541" fill="white"/>
<path d="M93.3182 19.5378L93.5022 18.7364C94.6719 18.7364 95.3601 18.5806 95.8245 16.6265L97.0083 11.4693C97.0083 11.441 97.014 11.4268 97.0253 11.4126C97.3029 10.1665 97.2122 9.2971 96.0426 9.03088C95.9463 9.01389 95.85 8.99973 95.7424 8.98274L95.9237 8.1841L101.868 6.60664L101.171 9.57181C102.35 8.43615 104.298 6.52734 105.876 6.52734C105.986 6.52734 106.091 6.55 106.184 6.5585C107.008 6.74541 107.365 7.65734 107.175 8.52678C107.175 8.52678 107.175 8.53244 107.175 8.54377C106.96 9.45003 106.077 10.2515 105.142 10.2515C105.012 10.2458 104.89 10.2317 104.765 10.209C104.491 10.1411 104.222 10.0278 103.978 9.90599C103.723 9.78421 103.488 9.67093 103.276 9.62562C103.199 9.61146 103.134 9.60296 103.069 9.60296C102.469 9.60296 101.203 10.8094 100.775 11.3022L99.4439 17.0626C99.2542 18.1218 99.5317 18.5353 100.155 18.674C100.37 18.7194 100.608 18.7335 100.891 18.7335L100.707 19.535H93.3125" fill="white"/>
<path d="M113.521 7.96329C113.343 7.91798 113.139 7.89816 112.909 7.89816C110.683 7.89816 109.415 10.481 109.01 12.1604H114.464C114.478 12.1123 114.498 12.0556 114.51 12.0046C114.991 9.82962 114.946 8.28615 113.521 7.96329ZM108.65 19.6795C105.954 19.0791 104.252 16.8871 104.963 13.7237C104.963 13.7124 104.968 13.6954 104.968 13.6841C105.356 12.0046 106.345 10.3224 107.732 9.01115C109.304 7.53848 111.134 6.79082 113.048 6.78516C113.518 6.79082 113.952 6.83897 114.354 6.92676C117.01 7.52999 118.273 9.98255 117.588 13.044C117.568 13.1176 117.551 13.1913 117.534 13.2706H108.797C108.797 13.2706 108.792 13.2847 108.786 13.3017C108.31 15.4371 109.12 17.7396 111.224 18.2097C111.476 18.2692 111.745 18.3003 112.034 18.3003C113.513 18.3003 115.062 17.4422 116.285 16.417L116.775 16.9607C114.736 18.8412 112.768 19.8438 110.23 19.8438C109.678 19.8438 109.143 19.7815 108.65 19.6767" fill="white"/>
<path d="M121.524 6.15454C122.632 6.1772 123.518 7.08629 123.493 8.19079C123.476 9.30662 122.561 10.1902 121.448 10.1732C120.338 10.1477 119.46 9.23299 119.477 8.12565C119.497 7.01549 120.403 6.13755 121.524 6.15454ZM123.003 8.19079C123.017 7.31002 122.351 6.60484 121.516 6.58784C120.68 6.57085 119.989 7.26754 119.972 8.13132C119.955 9.00925 120.618 9.72577 121.456 9.73993C122.3 9.75125 122.986 9.06306 123.003 8.19362M121.36 8.33806L121.009 8.32956V9.29813L120.604 9.29246L120.641 6.99566L121.539 7.01265C122.099 7.02398 122.385 7.21656 122.377 7.68668C122.377 8.103 122.108 8.27858 121.785 8.32106L122.394 9.32078L121.921 9.30945L121.36 8.33523V8.33806ZM121.434 7.99538C121.725 8.00671 121.972 7.98688 121.978 7.66686C121.989 7.40065 121.711 7.3525 121.473 7.3525L121.032 7.34684L121.026 7.99538H121.434Z" fill="white"/>
</g>
<defs>
<clipPath id="clip0_2010_111025">
<rect width="123.492" height="20" fill="white"/>
</clipPath>
</defs>
</svg>
